<svg width="217" height="84" xmlns="http://www.w3.org/2000/svg"><path d="M6.905 74.74c0 .9800049-.4199958 1.8899958-1.26 2.73 1.2600063.933338 2.5433268 1.4 3.85 1.4 2.6133464 0 4.4916609-.7699923 5.635-2.31 1.1433391-1.5400077 1.715-4.0133163 1.715-7.42l.07-21.98c0-4.1066872-.1166655-6.6383286-.35-7.595-.2333345-.9566714-.8633282-1.435-1.89-1.435-.5133359 0-1.1666627.0933324-1.96.28-.4200021.1400007-.8399979.21-1.26.21-1.4933408 0-2.24-.7466592-2.24-2.24 0-1.5400077.9799902-2.31 2.94-2.31.7000035 0 1.3066641.0233331 1.82.07 1.4933408.1400007 2.5433303.21 3.15.21.3733352 0 .9566627-.0583328 1.75-.175.7933373-.1166673 1.3766648-.175 1.75-.175 1.3533401 0 2.03.7466592 2.03 2.24 0 .2333345-.0233331.6999965-.07 1.4-.0466669.8400042-.07 1.5166641-.07 2.03-.0466669.7466704-.1166662 2.4266536-.21 5.04-.0933338 2.9400147-.14 5.2033254-.14 6.79v15.82c0 2.800014-.1166655 4.8766599-.35 6.23-.4200021 2.1933443-1.2599937 4.0599923-2.52 5.6-2.2400112 2.7066802-5.3666466 4.06-9.38 4.06-2.800014 0-5.133324-.699993-7-2.1s-2.8-3.1499895-2.8-5.25c0-1.1666725.33832995-2.1349961 1.015-2.905.67667005-.7700038 1.5283282-1.155 2.555-1.155.8866711 0 1.64499685.2916638 2.275.875.63000315.5833363.945 1.2716627.945 2.065zm10.76-41.38c-1.0733387 0-1.9949961-.3849961-2.765-1.155-.7700038-.7700038-1.155-1.6916613-1.155-2.765s.3849962-1.9833296 1.155-2.73c.7700039-.7466704 1.6916613-1.12 2.765-1.12s2.0066627.3849961 2.8 1.155c.7933373.7700038 1.19 1.6683282 1.19 2.695 0 1.0733387-.3966627 1.9949962-1.19 2.765-.7933373.7700039-1.7266613 1.155-2.8 1.155zm37.24 15.06c0 1.7733422-.1166655 2.8583314-.35 3.255-.2333345.3966686-.9099944.595-2.03.595h-22.26c-.6066697 0-1.0033324.0816659-1.19.245-.1866676.1633342-.28.4316648-.28.805 0 3.5000175 1.0499895 6.416655 3.15 8.75 2.1000105 2.333345 4.7133177 3.5 7.84 3.5 2.0533436 0 3.9316582-.5599944 5.635-1.68 1.7033419-1.1200056 2.8116641-2.5433247 3.325-4.27l.63-2.03c.3266683-1.1200056 1.0966606-1.68 2.31-1.68 1.7266753 0 2.59.8866578 2.59 2.66 0 3.0333485-1.5399846 5.7283215-4.62 8.085-3.0800154 2.3566784-6.5799804 3.535-10.5 3.535-4.9000245 0-8.7966522-1.6449836-11.69-4.935-2.8933478-3.2900165-4.34-7.7116389-4.34-13.265 0-5.6933618 1.5399846-10.3133156 4.62-13.86s7.0933086-5.32 12.04-5.32c4.3866886 0 8.0033191 1.4699853 10.85 4.41 2.8466809 2.9400147 4.27 6.6733107 4.27 11.2zm-25.41-1.82c0 .6533366.5133282.98 1.54.98h16.73c.9800049 0 1.47-.3266634 1.47-.98 0-2.4733457-.933324-4.6199909-2.8-6.44-1.866676-1.8200091-4.0599874-2.73-6.58-2.73-2.6133464 0-4.9933226.9449906-7.14 2.835-2.1466774 1.8900094-3.22 4.001655-3.22 6.335zm44.84 12.74l.14-4.48c.0466669-1.9133429.8866585-2.87 2.52-2.87s2.45 1.0733226 2.45 3.22c0 5.0866921-.6533268 8.6333233-1.96 10.64-1.7733422 2.7066802-4.6899797 4.06-8.75 4.06-3.733352 0-6.3933254-1.1899881-7.98-3.57-1.1666725-1.7266753-1.75-4.6666459-1.75-8.82v-16.8c0-.9800049-.4433289-1.47-1.33-1.47h-2.24c-.7466704 0-1.3649976-.2449975-1.855-.735-.4900025-.4900024-.735-1.0849965-.735-1.785 0-.6533366.2449975-1.2366641.735-1.75.4900024-.5133359 1.0383303-.77 1.645-.77h2.73c.7933373 0 3.4159463 0 3.4159463-7.0347063 0-4.6340784-2.7244539 2.8025932-4.1733617-19.68998528-.0174234-.27047825-5.2249516.77002874-5.2425846.49696804-.017633-.2730607 8.0376276-7.8805536 9.6135649-7.8805536 1.4597794 0 10.0864351 7.64808965 10.0864351 7.8805536-3.5350709-.52823806-5.3096469-.70629165-5.3237279-.53416079-1.8418048 22.51481993-4.7627072 15.09054593-4.7627072 19.72717803C61.5685649 34.21 64.8149958 34.21 65.655 34.21h7.63c1.7733422 0 2.66.8166585 2.66 2.45 0 1.7266753-.9566571 2.59-2.87 2.59h-7.7c-.6533366 0-.98.4899951-.98 1.47v17.22c0 4.9000245 1.6099839 7.35 4.83 7.35 3.266683 0 4.9699993-1.9833135 5.11-5.95zm137.160029 0l.14-4.48c.046667-1.9133429.886658-2.87 2.52-2.87 1.633341 0 2.45 1.0733226 2.45 3.22 0 5.0866921-.653327 8.6333233-1.96 10.64-1.773342 2.7066802-4.68998 4.06-8.75 4.06-3.733352 0-6.393325-1.1899881-7.98-3.57-1.166673-1.7266753-1.75-4.6666459-1.75-8.82v-16.8c0-.9800049-.443329-1.47-1.33-1.47h-2.24c-.74667 0-1.364998-.2449975-1.855-.735-.490003-.4900024-.735-1.0849965-.735-1.785 0-.6533366.244997-1.2366641.735-1.75.490002-.5133359 1.03833-.77 1.645-.77h2.73c.793337 0 3.415946 0 3.415946-7.0347063 0-4.6340784-2.724454 2.8025932-4.173361-19.68998528-.017424-.27047825-5.224952.77002874-5.242585.49696804-.017633-.2730607 8.037628-7.8805536 9.613565-7.8805536 1.459779 0 10.086435 7.64808965 10.086435 7.8805536-3.535071-.52823806-5.309647-.70629165-5.323728-.53416079-1.841805 22.51481993-4.762707 15.09054593-4.762707 19.72717803 0 7.0347063 3.246431 7.0347063 4.086435 7.0347063h7.63c1.773342 0 2.66.8166585 2.66 2.45 0 1.7266753-.956657 2.59-2.87 2.59h-7.7c-.653337 0-.98.4899951-.98 1.47v17.22c0 4.9000245 1.609984 7.35 4.83 7.35 3.266683 0 4.969999-1.9833135 5.11-5.95zM112.865 48.42c0 1.7733422-.116666 2.8583314-.35 3.255-.233334.3966686-.909994.595-2.03.595h-22.26c-.6066697 0-1.0033324.0816659-1.19.245-.1866676.1633342-.28.4316648-.28.805 0 3.5000175 1.0499895 6.416655 3.15 8.75 2.1000105 2.333345 4.7133177 3.5 7.84 3.5 2.0533436 0 3.931658-.5599944 5.635-1.68 1.703342-1.1200056 2.811664-2.5433247 3.325-4.27l.63-2.03c.326668-1.1200056 1.096661-1.68 2.31-1.68 1.726675 0 2.59.8866578 2.59 2.66 0 3.0333485-1.539985 5.7283215-4.62 8.085-3.080015 2.3566784-6.57998 3.535-10.5 3.535-4.9000245 0-8.7966522-1.6449836-11.69-4.935-2.8933478-3.2900165-4.34-7.7116389-4.34-13.265 0-5.6933618 1.5399846-10.3133156 4.62-13.86s7.0933086-5.32 12.04-5.32c4.386689 0 8.003319 1.4699853 10.85 4.41 2.846681 2.9400147 4.27 6.6733107 4.27 11.2zm-25.41-1.82c0 .6533366.5133282.98 1.54.98h16.73c.980005 0 1.47-.3266634 1.47-.98 0-2.4733457-.933324-4.6199909-2.8-6.44-1.866676-1.8200091-4.059987-2.73-6.58-2.73-2.6133464 0-4.9933226.9449906-7.14 2.835-2.1466774 1.8900094-3.22 4.001655-3.22 6.335zm35.09-10.5v2.03c1.680008-2.0066767 3.266659-3.3949962 4.76-4.165 1.493341-.7700038 3.359989-1.155 5.6-1.155 4.573356 0 7.933323 1.7733156 10.08 5.32 1.586675-1.9600098 3.196659-3.3366627 4.83-4.13 1.633341-.7933373 3.73332-1.19 6.3-1.19 2.660013 0 5.039989.5599944 7.14 1.68 2.333345 1.2600063 3.943329 3.0333219 4.83 5.32.60667 1.5400077.91 3.9666501.91 7.28v6.79l-.07 5.25c0 1.9133429.023333 3.0799979.07 3.5.233335 1.6800084.839995 2.52 1.82 2.52.326668 0 .816663-.0699993 1.47-.21.653337-.1400007 1.143332-.21 1.47-.21 1.633342 0 2.45.699993 2.45 2.1 0 1.6333415-.933324 2.45-2.8 2.45-.700004 0-1.76166-.0816659-3.185-.245-1.42334-.1633342-2.50833-.245-3.255-.245-.793337 0-1.948326.0816658-3.465.245-1.516674.1633341-2.671663.245-3.465.245-1.96001 0-2.94-.8166585-2.94-2.45 0-1.400007.746659-2.1 2.24-2.1.186668 0 .65333.0466662 1.4.14.280001.0933338.653331.14 1.12.14.793337 0 1.294999-.3966627 1.505-1.19.210001-.7933373.338333-2.7766508.385-5.95l.07-4.27v-4.62c0-3.2200161-.244998-5.5649927-.735-7.035-.490002-1.4700074-1.41166-2.6249958-2.765-3.465-1.35334-.8400042-2.893325-1.26-4.62-1.26-3.31335 0-5.623327 1.1433219-6.93 3.43-1.026672 1.8200091-1.54 4.9933107-1.54 9.52v4.97c0 4.3866886.104999 7.1283278.315 8.225.210001 1.0966722.758329 1.645 1.645 1.645.280001 0 .688331-.0583327 1.225-.175.536669-.1166672.944999-.175 1.225-.175.653337 0 1.201664.2216645 1.645.665.443336.4433356.665.9916634.665 1.645 0 1.5400077-1.096656 2.31-3.29 2.31-.700004 0-1.738326-.0933324-3.115-.28-1.376674-.1866676-2.414997-.28-3.115-.28-.980005 0-2.053327.0933324-3.22.28-1.166672.1866676-2.193329.28-3.08.28-1.913343 0-2.87-.7933254-2.87-2.38 0-1.4466739.699993-2.17 2.1-2.17.513336 0 .909999.0466662 1.19.14.653337.1400007 1.143332.21 1.47.21 1.120006 0 1.703333-1.1899881 1.75-3.57l.07-3.29c.046667-1.0266718.07-2.0299951.07-3.01.046667-.8400042.07-1.2833331.07-1.33v-5.81c0-4.0600203-.548328-6.8833254-1.645-8.47-1.096672-1.5866746-3.044986-2.38-5.845-2.38-3.080015 0-5.436659 1.1199888-7.07 3.36-1.35334 1.8200091-2.03 4.9933107-2.03 9.52v9.31c0 1.866676.023333 2.9633317.07 3.29.186668 1.5866746.699996 2.38 1.54 2.38.233335 0 .72333-.0933324 1.47-.28.093334 0 .233332-.0233331.42-.07h.49c1.820009 0 2.73.7699923 2.73 2.31 0 1.4933408-1.04999 2.24-3.15 2.24-.793337 0-1.773328-.0699993-2.94-.21-1.586675-.1866676-2.939994-.28-4.06-.28-.560003 0-1.586659.0699993-3.08.21-2.006677.1866676-3.219998.28-3.64.28-1.866676 0-2.8-.7933254-2.8-2.38 0-1.4466739.886658-2.17 2.66-2.17h.42c.186668.0466669.326666.07.42.07l1.75.35c.046667.0466669.139999.07.28.07 1.260006 0 1.936666-1.1433219 2.03-3.43l.14-3.99V47.09c0-3.9666865-.104999-6.4399951-.315-7.42s-.781662-1.47-1.715-1.47c-.186668 0-.839994.1166655-1.96.35-.466669.0933338-.839999.14-1.12.14-1.726675 0-2.59-.7466592-2.59-2.24 0-1.5866746.956657-2.38 2.87-2.38.513336 0 1.213329.0466662 2.1.14.886671.0933338 1.656663.14 2.31.14.233334 0 .489999-.0233331.77-.07h.49l1.68-.21h.21c1.120006 0 1.68.6766599 1.68 2.03zm65.8 12.6v9.1c0 2.333345.023333 3.7099979.07 4.13.233335 2.1000105.863328 3.15 1.89 3.15.233335 0 .816662-.1166655 1.75-.35.233335-.0933338.583331-.14 1.05-.14 1.773342 0 2.66.7699923 2.66 2.31 0 .6533366-.291664 1.213331-.875 1.68-.583336.466669-1.318329.7-2.205.7-.74667 0-1.878326-.104999-3.395-.315s-2.64833-.315-3.395-.315c-1.213339 0-2.566659.0933324-4.06.28-1.820009.2333345-3.03333.35-3.64.35-1.866676 0-2.8-.7933254-2.8-2.38 0-1.5400077.793325-2.31 2.38-2.31.373335 0 .921663.0699993 1.645.21.723337.1400007 1.271665.21 1.645.21 1.120006 0 1.796666-1.4933184 2.03-4.48V42.61c-.233334-2.9400147-.933327-4.41-2.1-4.41-.373335 0-.89833.0816658-1.575.245-.67667.1633342-1.178332.245-1.505.245-1.680008 0-2.52-.7466592-2.52-2.24 0-1.5866746 1.026656-2.38 3.08-2.38.886671 0 1.516665.0233331 1.89.07 1.493341.1866676 2.449998.28 2.87.28.373335 0 .944996-.0583328 1.715-.175.770004-.1166673 1.341665-.175 1.715-.175 1.35334 0 2.03.9099909 2.03 2.73 0 .1866676-.023333.4666648-.07.84-.046667.3733352-.07.6533324-.07.84-.046667.3733352-.093333 1.8199874-.14 4.34-.046667 1.9133429-.07 3.8733233-.07 5.88zm-4.64-15.34c-1.073339 0-1.994996-.3849961-2.765-1.155-.770004-.7700038-1.155-1.6916613-1.155-2.765s.384996-1.9833296 1.155-2.73 1.691661-1.12 2.765-1.12 1.994996.3733296 2.765 1.12c.770004.7466704 1.155 1.6566613 1.155 2.73s-.384996 1.9949962-1.155 2.765c-.770004.7700039-1.691661 1.155-2.765 1.155z" fill="#7ED321" fill-rule="evenodd"/></svg>